<svg width="28" height="27" viewBox="0 0 28 27" fill="none" xmlns="http://www.w3.org/2000/svg">
<path d="M14.4048 2.25C12.9274 2.25 11.4645 2.54099 10.0996 3.10636C8.73468 3.67172 7.49449 4.50039 6.44983 5.54505C4.34005 7.65483 3.15479 10.5163 3.15479 13.5C3.15479 18.4725 6.38354 22.6912 10.8498 24.1875C11.4123 24.2775 11.5923 23.9287 11.5923 23.625V21.7237C8.47604 22.3988 7.81228 20.2162 7.81228 20.2162C7.29479 18.9112 6.56354 18.5625 6.56354 18.5625C5.53979 17.865 6.64229 17.8875 6.64229 17.8875C7.76728 17.9662 8.36354 19.0462 8.36354 19.0462C9.34229 20.7563 10.996 20.25 11.6373 19.98C11.7385 19.2488 12.031 18.7537 12.346 18.4725C9.84854 18.1912 7.22728 17.2238 7.22728 12.9375C7.22728 11.6888 7.65479 10.6875 8.38604 9.88875C8.27354 9.6075 7.87979 8.4375 8.49854 6.91875C8.49854 6.91875 9.44354 6.615 11.5923 8.06625C12.481 7.81875 13.4485 7.695 14.4048 7.695C15.361 7.695 16.3285 7.81875 17.2173 8.06625C19.366 6.615 20.311 6.91875 20.311 6.91875C20.9298 8.4375 20.536 9.6075 20.4235 9.88875C21.1548 10.6875 21.5823 11.6888 21.5823 12.9375C21.5823 17.235 18.9498 18.18 16.441 18.4613C16.846 18.81 17.2173 19.4963 17.2173 20.5425V23.625C17.2173 23.9287 17.3973 24.2887 17.971 24.1875C22.4373 22.68 25.6548 18.4725 25.6548 13.5C25.6548 12.0226 25.3638 10.5597 24.7984 9.19481C24.2331 7.8299 23.4044 6.58971 22.3597 5.54505C21.3151 4.50039 20.0749 3.67172 18.71 3.10636C17.3451 2.54099 15.8822 2.25 14.4048 2.25Z" fill="#E0234E"/>
</svg>
