<svg width="28" height="27" viewBox="0 0 28 27" fill="none" xmlns="http://www.w3.org/2000/svg">
<path d="M13.6507 2.99742L14.4944 1.30992C14.5946 1.10977 14.7701 0.957613 14.9825 0.886902C15.1948 0.816191 15.4265 0.832724 15.6266 0.932864C15.8268 1.033 15.979 1.20855 16.0497 1.42088C16.1204 1.63321 16.1038 1.86493 16.0037 2.06507L15.16 3.75257C15.1104 3.85167 15.0417 3.94003 14.958 4.01261C14.8743 4.08519 14.7771 4.14057 14.6719 4.17558C14.5668 4.2106 14.4558 4.22456 14.3453 4.21667C14.2347 4.20879 14.1268 4.17921 14.0277 4.12962C13.9286 4.08004 13.8403 4.01142 13.7677 3.92769C13.6951 3.84395 13.6397 3.74674 13.6047 3.64161C13.5697 3.53647 13.5558 3.42547 13.5636 3.31494C13.5715 3.20441 13.6011 3.09651 13.6507 2.99742ZM2.59229 10.9687H3.43604C3.65982 10.9687 3.87443 10.8798 4.03267 10.7216C4.1909 10.5634 4.27979 10.3488 4.27979 10.125C4.27979 9.90122 4.1909 9.68661 4.03267 9.52837C3.87443 9.37014 3.65982 9.28124 3.43604 9.28124H2.59229C2.36852 9.28124 2.15391 9.37014 1.99567 9.52837C1.83744 9.68661 1.74854 9.90122 1.74854 10.125C1.74854 10.3488 1.83744 10.5634 1.99567 10.7216C2.15391 10.8798 2.36852 10.9687 2.59229 10.9687ZM11.0298 3.37499C11.2536 3.37499 11.4682 3.2861 11.6264 3.12786C11.7846 2.96963 11.8735 2.75502 11.8735 2.53124V1.68749C11.8735 1.46372 11.7846 1.24911 11.6264 1.09087C11.4682 0.932638 11.2536 0.843743 11.0298 0.843743C10.806 0.843743 10.5914 0.932638 10.4332 1.09087C10.2749 1.24911 10.186 1.46372 10.186 1.68749V2.53124C10.186 2.75502 10.2749 2.96963 10.4332 3.12786C10.5914 3.2861 10.806 3.37499 11.0298 3.37499ZM3.90222 12.7459L2.21472 13.5896C2.01458 13.6898 1.86241 13.8653 1.7917 14.0777C1.72099 14.29 1.73752 14.5217 1.83766 14.7218C1.9378 14.922 2.11335 15.0742 2.32568 15.1449C2.53801 15.2156 2.76973 15.199 2.96987 15.0989L4.65737 14.2551C4.75647 14.2056 4.84483 14.1369 4.91741 14.0532C4.99 13.9695 5.04537 13.8723 5.08038 13.7671C5.1154 13.662 5.12936 13.551 5.12147 13.4405C5.11359 13.3299 5.08401 13.222 5.03442 13.1229C4.98484 13.0238 4.91622 12.9355 4.83249 12.8629C4.74875 12.7903 4.65154 12.7349 4.54641 12.6999C4.44127 12.6649 4.33027 12.651 4.21974 12.6588C4.10921 12.6667 4.00131 12.6963 3.90222 12.7459ZM18.2091 14.4228L23.5183 12.1152C23.8294 11.9773 24.0915 11.7485 24.2702 11.459C24.449 11.1695 24.536 10.8327 24.5199 10.4928C24.5038 10.1529 24.3854 9.82585 24.1801 9.55449C23.9748 9.28313 23.6923 9.08016 23.3696 8.97222L6.4862 3.45937C6.19077 3.36268 5.87433 3.34974 5.57199 3.42198C5.26965 3.49423 4.99324 3.64883 4.77343 3.86863C4.55363 4.08844 4.39903 4.36485 4.32678 4.66719C4.25454 4.96952 4.26748 5.28597 4.36417 5.5814L9.87702 22.4648C9.98092 22.7907 10.1824 23.0767 10.4543 23.2842C10.7261 23.4917 11.0551 23.6107 11.3968 23.625H11.4791C11.8068 23.6261 12.1277 23.5309 12.4016 23.351C12.6756 23.1712 12.8907 22.9147 13.02 22.6135L15.3276 17.3043L21.1548 23.1303C21.3115 23.2871 21.4975 23.4114 21.7023 23.4962C21.9071 23.5811 22.1265 23.6247 22.3482 23.6247C22.5698 23.6247 22.7893 23.5811 22.994 23.4962C23.1988 23.4114 23.3848 23.2871 23.5416 23.1303L24.0351 22.6368C24.1919 22.48 24.3162 22.294 24.401 22.0892C24.4859 21.8845 24.5295 21.665 24.5295 21.4434C24.5295 21.2217 24.4859 21.0023 24.401 20.7975C24.3162 20.5927 24.1919 20.4067 24.0351 20.25L18.2091 14.4228Z" fill="#E0234E"/>
</svg>
