<svg width="28" height="27" viewBox="0 0 28 27" fill="none" xmlns="http://www.w3.org/2000/svg">
<path d="M22.2798 3.375C22.8765 3.375 23.4488 3.61205 23.8708 4.03401C24.2927 4.45597 24.5298 5.02826 24.5298 5.625V21.375C24.5298 21.9717 24.2927 22.544 23.8708 22.966C23.4488 23.3879 22.8765 23.625 22.2798 23.625H6.52979C5.93305 23.625 5.36075 23.3879 4.93879 22.966C4.51684 22.544 4.27979 21.9717 4.27979 21.375V5.625C4.27979 5.02826 4.51684 4.45597 4.93879 4.03401C5.36075 3.61205 5.93305 3.375 6.52979 3.375H22.2798ZM21.7173 20.8125V14.85C21.7173 13.8773 21.3309 12.9445 20.6431 12.2567C19.9553 11.5689 19.0225 11.1825 18.0498 11.1825C17.0935 11.1825 15.9798 11.7675 15.4398 12.645V11.3962H12.301V20.8125H15.4398V15.2662C15.4398 14.4 16.1373 13.6912 17.0035 13.6912C17.4213 13.6912 17.8219 13.8572 18.1172 14.1526C18.4126 14.4479 18.5785 14.8485 18.5785 15.2662V20.8125H21.7173ZM8.64479 9.63C9.14604 9.63 9.62677 9.43088 9.98122 9.07643C10.3357 8.72199 10.5348 8.24126 10.5348 7.74C10.5348 6.69375 9.69104 5.83875 8.64479 5.83875C8.14054 5.83875 7.65695 6.03906 7.3004 6.39561C6.94384 6.75217 6.74354 7.23576 6.74354 7.74C6.74354 8.78625 7.59854 9.63 8.64479 9.63ZM10.2085 20.8125V11.3962H7.09229V20.8125H10.2085Z" fill="#E0234E"/>
</svg>
