<svg width="28" height="22" viewBox="0 0 28 22" fill="none" xmlns="http://www.w3.org/2000/svg">
<g clip-path="url(#clip0_16_23)">
<path d="M27.7307 10.9432L11.4762 0V3.86348L5.73827 0V3.86348L0 0V21.8868L5.73827 18.0233V21.8868L11.4765 18.0233V21.8868L27.7307 10.9432ZM1.42212 19.1836V2.70316L5.73827 5.61035L7.1604 6.56665L11.4765 9.47384L12.8987 10.4301L13.6595 10.9436L12.8987 11.457L11.4765 12.4133L7.1604 15.3205L5.73827 16.2765L1.42212 19.1836ZM7.16005 19.1836V17.0645L11.4762 14.1595L12.8983 13.2011L16.2521 10.9432L12.8983 8.68539L11.4762 7.72697L7.16005 4.82226V2.70316L11.4762 5.61035L12.8983 6.56665L19.3971 10.9436L12.8983 15.3205L11.4762 16.2768L7.16005 19.1836ZM21.99 10.9432L12.8983 4.82226V2.70316L25.1378 10.9432L12.8983 19.1836V17.0645L21.99 10.9432Z" fill="#090724"/>
</g>
<defs>
<clipPath id="clip0_16_23">
<rect width="28" height="22" fill="white"/>
</clipPath>
</defs>
</svg>
